<svg width="107" height="44" viewBox="0 0 107 44" fill="none" xmlns="http://www.w3.org/2000/svg">
<g clip-path="url(#clip0_5181_7163)">
<path fill-rule="evenodd" clip-rule="evenodd" d="M39.9864 32.2367C40.1705 32.0526 40.4713 32.0526 40.6554 32.2367L44.364 35.9453C44.5481 36.1293 44.5481 36.4302 44.364 36.6142L42.4199 38.5583C42.2358 38.7424 41.935 38.7424 41.7509 38.5583L38.0424 34.8453C37.8583 34.6612 37.8583 34.3604 38.0424 34.1763L39.9864 32.2322V32.2367Z" fill="#002E33"/>
<path fill-rule="evenodd" clip-rule="evenodd" d="M44.3636 29.4796C44.5477 29.6637 44.5477 29.9645 44.3636 30.1486L35.9542 38.558C35.7702 38.7421 35.4693 38.7421 35.2853 38.558L33.3412 36.6139C33.1571 36.4298 33.1571 36.129 33.3412 35.9449L41.7506 27.5355C41.9347 27.3514 42.2355 27.3514 42.4196 27.5355L44.3636 29.4796Z" fill="#002E33"/>
<path fill-rule="evenodd" clip-rule="evenodd" d="M35.2898 27.5404C35.4738 27.3563 35.7747 27.3563 35.9587 27.5404L36.3449 27.9265C37.3147 28.8963 37.3147 30.4722 36.3449 31.4465L35.824 31.9673C35.64 32.1514 35.3391 32.1514 35.1551 31.9673L33.3412 30.1535C33.1571 29.9694 33.1571 29.6686 33.3412 29.4845L35.2853 27.5404H35.2898Z" fill="#002E33"/>
<path d="M99.1425 30.692C99.1425 30.1802 99.5691 29.8165 100.103 29.8165C100.566 29.8165 100.912 30.0185 101.127 30.4002C101.257 30.6291 101.504 30.7908 101.76 30.7234L103.619 30.2565C103.884 30.1891 104.041 29.9153 103.933 29.6683C103.318 28.272 101.926 27.3965 100.148 27.3965C97.7731 27.3965 96.1703 29.0218 96.1703 30.8851C96.1703 34.8226 101.239 33.5385 101.239 35.2042C101.239 35.8687 100.705 36.21 100.063 36.21C99.4209 36.21 98.8731 35.8822 98.5544 35.2716C98.4286 35.0336 98.1682 34.8855 97.9123 34.9618L96.0535 35.523C95.8111 35.5949 95.6629 35.8508 95.7572 36.0887C96.3948 37.723 98.1952 38.6524 100.027 38.6524C102.187 38.6524 104.261 37.2426 104.261 35.0381C104.261 31.0153 99.147 32.2769 99.147 30.6965L99.1425 30.692Z" fill="#002E33"/>
<path d="M91.5501 32.9368C91.4064 32.7527 91.4154 32.4923 91.568 32.3217L95.0476 28.4559C95.326 28.1461 95.106 27.6568 94.6929 27.6568H92.1562C92.017 27.6568 91.8868 27.7151 91.797 27.8229L88.8427 31.2261C88.5509 31.5584 88.0031 31.3563 88.0031 30.9119V24.6845C88.0031 24.4196 87.7876 24.2041 87.5227 24.2041H85.2285C84.9636 24.2041 84.748 24.4196 84.748 24.6845V37.9159C84.748 38.1808 84.9636 38.3963 85.2285 38.3963H87.5227C87.7876 38.3963 88.0031 38.1808 88.0031 37.9159V34.6294C88.0031 34.1759 88.5734 33.9784 88.8562 34.3331L91.9452 38.2168C92.035 38.329 92.1742 38.3963 92.3178 38.3963H94.886C95.2856 38.3963 95.5101 37.9339 95.2587 37.6196L91.5456 32.9368H91.5501Z" fill="#002E33"/>
<path d="M77.5326 27.401C74.5783 27.401 71.9922 29.7761 71.9922 33.0267C71.9922 36.2773 74.5828 38.6524 77.6179 38.6524C79.535 38.6524 81.1963 37.8487 82.2469 36.3985C82.395 36.192 82.3322 35.9091 82.1257 35.7655L80.6126 34.7193C80.3926 34.5667 80.0873 34.6295 79.9212 34.8406C79.3644 35.5634 78.691 35.9989 77.6179 35.9989C76.5448 35.9989 75.6559 35.4467 75.2069 34.4769C75.0767 34.194 75.3057 33.9022 75.6154 33.9022H82.4489C82.7048 33.9022 82.9114 33.7046 82.9159 33.4487C82.9428 29.9557 80.8955 27.3965 77.5326 27.3965V27.401ZM79.2612 31.8728H75.7816C75.4538 31.8728 75.2248 31.5495 75.3954 31.2712C75.8714 30.4855 76.6706 30.032 77.5595 30.032C78.673 30.032 79.3644 30.6246 79.6697 31.334C79.7865 31.6034 79.5575 31.8728 79.2657 31.8728H79.2612Z" fill="#002E33"/>
<path d="M65.3353 27.401C62.381 27.401 59.7949 29.7761 59.7949 33.0267C59.7949 36.2773 62.3855 38.6524 65.4206 38.6524C67.3378 38.6524 68.9945 37.8487 70.0496 36.3985C70.1978 36.192 70.1349 35.9091 69.9284 35.7655L68.4153 34.7193C68.1908 34.5667 67.89 34.6295 67.7239 34.8406C67.1672 35.5634 66.4937 35.9989 65.4206 35.9989C64.3476 35.9989 63.4586 35.4467 63.0096 34.4769C62.8794 34.194 63.1084 33.9022 63.4182 33.9022H70.2517C70.5076 33.9022 70.7186 33.7046 70.7186 33.4487C70.7455 29.9557 68.6982 27.3965 65.3353 27.3965V27.401ZM67.0594 31.8728H63.5798C63.2521 31.8728 63.0231 31.5495 63.1937 31.2712C63.6696 30.4855 64.4688 30.032 65.3578 30.032C66.4713 30.032 67.1627 30.6246 67.468 31.334C67.5847 31.6034 67.3557 31.8728 67.0639 31.8728H67.0594Z" fill="#002E33"/>
<path d="M57.5269 27.6563H55.08C54.9004 27.6563 54.7522 27.8 54.7522 27.9841C54.7522 28.2939 54.3167 28.46 54.0698 28.2714C53.3918 27.7596 52.4714 27.4004 51.4163 27.4004C48.4845 27.4004 46.1094 29.8159 46.1094 33.0261C46.1094 36.2363 48.4845 38.6518 51.4163 38.6518C52.3053 38.6518 53.1 38.3959 53.733 38.0098C54.1147 37.7763 54.7567 38.0367 54.7567 38.4812C54.7567 40.3624 53.6028 41.3457 52.0808 41.3457C50.8506 41.3457 49.9212 40.7261 49.6339 39.6755C49.571 39.4375 49.369 39.249 49.122 39.249H46.8457C46.5718 39.249 46.3518 39.4779 46.3922 39.7473C46.7694 42.3828 49.1939 43.9992 52.0359 43.9992C55.2012 43.9992 58.0028 41.8396 58.0028 38.351V28.1322C58.0028 27.8673 57.7873 27.6518 57.5224 27.6518L57.5269 27.6563ZM52.1033 35.8502C50.5184 35.8502 49.342 34.629 49.342 33.0261C49.342 31.4232 50.5184 30.202 52.1033 30.202C53.6882 30.202 54.842 31.4232 54.842 33.0261C54.842 34.629 53.6657 35.8502 52.1033 35.8502Z" fill="#002E33"/>
<path d="M12.8496 5.96245L19.1847 17.1735C19.3553 17.4608 19.3553 17.7167 19.2116 17.9771L13.7924 27.9849C13.5904 28.3845 13.7655 28.6718 14.192 28.6718H18.0038C18.4034 28.6718 18.6638 28.5012 18.8345 28.1555L30.4765 5.96245C30.7324 5.44612 30.5034 5.10041 29.9602 5.10041H26.2022C25.8879 5.10041 25.6859 5.24408 25.5422 5.53143L22.2467 12.1269C22.13 12.3559 22.0177 12.4412 21.8471 12.4412C21.6765 12.4412 21.5598 12.3559 21.4475 12.1269L17.95 5.50449C17.8063 5.21714 17.5773 5.1049 17.263 5.1049H13.3345C12.7912 5.1049 12.5622 5.45061 12.8451 5.96694L12.8496 5.96245ZM98.892 20.8147H102.506C102.879 20.8147 103.081 20.6127 103.081 20.24V10.1784C103.081 9.80571 103.283 9.60367 103.656 9.60367H105.663C106.035 9.60367 106.237 9.40163 106.237 9.02898V5.6751C106.237 5.30245 106.035 5.10041 105.663 5.10041H103.656C103.283 5.10041 103.081 4.89837 103.081 4.52571V0.574694C103.081 0.202041 102.879 0 102.506 0H98.892C98.5194 0 98.3173 0.202041 98.3173 0.574694V4.5302C98.3173 4.90286 98.1153 5.1049 97.7426 5.1049H96.5079C96.1353 5.1049 95.9332 5.30694 95.9332 5.67959V9.03347C95.9332 9.40612 96.1353 9.60816 96.5079 9.60816H97.7426C98.1153 9.60816 98.3173 9.8102 98.3173 10.1829V20.2445C98.3173 20.6171 98.5194 20.8192 98.892 20.8192V20.8147ZM91.3536 10.0616H92.4985C93.8455 10.0616 94.7928 9.11429 94.7928 7.76735V7.25102C94.7928 5.90408 93.8455 4.95673 92.4985 4.95673H91.3536C90.0067 4.95673 89.0594 5.90408 89.0594 7.25102V7.76735C89.0594 9.11429 90.0067 10.0616 91.3536 10.0616ZM83.7255 20.8147H87.3398C87.7124 20.8147 87.9145 20.6127 87.9145 20.24V5.6751C87.9145 5.30245 87.7124 5.10041 87.3398 5.10041H83.7255C83.3528 5.10041 83.1508 5.30245 83.1508 5.6751V20.24C83.1508 20.6127 83.3528 20.8147 83.7255 20.8147ZM69.9328 10.7531C70.4761 9.40612 71.8814 8.57551 73.3181 8.57551C75.0961 8.57551 76.1287 9.6351 76.5014 10.7845C76.5867 11.0988 76.443 11.2739 76.1557 11.2739H70.2202C69.9642 11.2739 69.7891 11.0718 69.9328 10.7576V10.7531ZM73.4034 21.1873C76.241 21.1873 78.7059 19.9841 80.2549 17.802C80.4569 17.5147 80.3985 17.2588 80.0843 17.0298L77.6777 15.3686C77.3634 15.1396 77.103 15.2249 76.874 15.5122C76.012 16.6302 75.0377 17.3171 73.4034 17.3171C71.6838 17.3171 70.2516 16.3698 69.7038 14.7355C69.5871 14.4482 69.7308 14.2461 70.0496 14.2461H80.5422C80.8879 14.2461 81.1438 14.0441 81.1438 13.6714C81.2291 8.51265 78.2479 4.72776 73.2867 4.72776C68.9585 4.72776 65.1736 7.91102 65.1736 12.9576C65.1736 17.6898 68.6712 21.1873 73.4034 21.1873ZM55.1973 20.8147H57.9226C58.2369 20.8147 58.4389 20.698 58.5826 20.3837L65.2365 5.93551C65.4655 5.41918 65.2365 5.1049 64.6932 5.1049H61.1957C60.8814 5.1049 60.6794 5.22163 60.5357 5.53592L57.0112 13.5637C56.8989 13.8196 56.7822 13.878 56.6385 13.878C56.4949 13.878 56.3826 13.8196 56.2659 13.5637L52.7369 5.53592C52.5932 5.22163 52.3912 5.1049 52.0769 5.1049H48.4357C47.8924 5.1049 47.6634 5.41918 47.8924 5.93551L54.5463 20.3837C54.69 20.698 54.892 20.8147 55.2063 20.8147H55.1973ZM32.663 20.8147H36.2773C36.65 20.8147 36.852 20.6127 36.852 20.24V12.1853C36.852 10.322 37.9116 8.9751 39.6896 8.9751C41.4675 8.9751 42.2981 10.1784 42.2981 11.8127V20.24C42.2981 20.6127 42.5002 20.8147 42.8728 20.8147H46.4871C46.8598 20.8147 47.0618 20.6127 47.0618 20.24V10.4927C47.0618 7.08041 44.9112 4.72776 41.4406 4.72776C40.1206 4.72776 39.2047 5.12735 38.2304 5.78735C37.8577 6.04327 37.6287 6.18694 37.3998 6.18694C37.0541 6.18694 36.8834 5.9849 36.8565 5.67061C36.8296 5.29796 36.6859 5.09592 36.2818 5.09592H32.6675C32.2949 5.09592 32.0928 5.29796 32.0928 5.67061V20.2355C32.0928 20.6082 32.2949 20.8102 32.6675 20.8102L32.663 20.8147ZM6.45609 21.1873C10.2141 21.1873 12.7059 19.0951 12.7059 15.8535C12.7059 12.1853 9.89528 11.5253 7.6863 10.9506C6.30793 10.6049 5.16303 10.3759 5.16303 9.46C5.16303 8.74163 5.7916 8.36898 6.5414 8.36898C7.22834 8.36898 7.74466 8.74163 8.05895 9.34326C8.26099 9.71592 8.48997 9.83265 8.94793 9.71592L11.8438 8.97061C12.2749 8.85388 12.4185 8.57102 12.2749 8.16694C11.4128 6.07469 9.29364 4.72776 6.6267 4.72776C3.12915 4.72776 0.749562 6.85143 0.749562 9.68898C0.749562 13.1596 3.44344 13.8735 5.56711 14.4751C7.03079 14.9061 8.23405 15.162 8.23405 16.1947C8.23405 17.0567 7.54711 17.5147 6.57283 17.5147C5.59854 17.5147 4.85324 16.9984 4.30997 15.9971C4.10793 15.6245 3.85201 15.5078 3.39405 15.6514L0.525072 16.5135C0.179358 16.6302 -0.0181932 16.9445 0.12548 17.3171C1.01446 19.782 3.73977 21.1873 6.46058 21.1873H6.45609Z" fill="#00EBB6"/>
</g>
<defs>
<clipPath id="clip0_5181_7163">
<rect width="106.408" height="44" fill="white"/>
</clipPath>
</defs>
</svg>
